<!-- <svg width="100%" height="100%" id="svg" viewBox="0 0 1440 500" xmlns="http://www.w3.org/2000/svg" class="transition duration-300 ease-in-out delay-150"><defs><linearGradient id="gradient" x1="3%" y1="67%" x2="97%" y2="33%"><stop offset="5%" stop-color="#9900ef"></stop><stop offset="95%" stop-color="#4469d8"></stop></linearGradient></defs><path d="M 0,500 C 0,500 0,166 0,166 C 139.25,189.14285714285714 278.5,212.28571428571428 401,198 C 523.5,183.71428571428572 629.25,131.99999999999997 734,130 C 838.75,128.00000000000003 942.5,175.71428571428572 1060,190 C 1177.5,204.28571428571428 1308.75,185.14285714285714 1440,166 C 1440,166 1440,500 1440,500 Z" stroke="none" stroke-width="0" fill="url(#gradient)" fill-opacity="0.53" class="transition-all duration-300 ease-in-out delay-150 path-0"></path><defs><linearGradient id="gradient" x1="3%" y1="67%" x2="97%" y2="33%"><stop offset="5%" stop-color="#9900ef"></stop><stop offset="95%" stop-color="#4469d8"></stop></linearGradient></defs><path d="M 0,500 C 0,500 0,333 0,333 C 155.14285714285717,358.7857142857143 310.28571428571433,384.57142857142856 426,381 C 541.7142857142857,377.42857142857144 617.9999999999999,344.5 728,317 C 838.0000000000001,289.5 981.7142857142858,267.42857142857144 1106,271 C 1230.2857142857142,274.57142857142856 1335.142857142857,303.7857142857143 1440,333 C 1440,333 1440,500 1440,500 Z" stroke="none" stroke-width="0" fill="url(#gradient)" fill-opacity="1" class="transition-all duration-300 ease-in-out delay-150 path-1"></path></svg> -->
<svg width="100%" height="100%" id="svg" viewBox="0 0 1440 400" xmlns="http://www.w3.org/2000/svg" class="transition duration-300 ease-in-out delay-150"><style>
          .path-0{
            animation:pathAnim-0 4s;
            animation-timing-function: linear;
            animation-iteration-count: infinite;
          }
          @keyframes pathAnim-0{
            0%{
              d: path("M 0,400 C 0,400 0,200 0,200 C 121.35714285714286,201.28571428571428 242.71428571428572,202.57142857142858 350,207 C 457.2857142857143,211.42857142857142 550.5,218.99999999999997 680,209 C 809.5,199.00000000000003 975.2857142857142,171.42857142857142 1108,167 C 1240.7142857142858,162.57142857142858 1340.357142857143,181.28571428571428 1440,200 C 1440,200 1440,400 1440,400 Z");
            }
            25%{
              d: path("M 0,400 C 0,400 0,200 0,200 C 111.64285714285714,189.57142857142856 223.28571428571428,179.14285714285714 331,168 C 438.7142857142857,156.85714285714286 542.4999999999999,145 671,171 C 799.5000000000001,197 952.7142857142858,260.8571428571429 1085,272 C 1217.2857142857142,283.1428571428571 1328.642857142857,241.57142857142856 1440,200 C 1440,200 1440,400 1440,400 Z");
            }
            50%{
              d: path("M 0,400 C 0,400 0,200 0,200 C 130.21428571428572,197.07142857142856 260.42857142857144,194.14285714285714 361,198 C 461.57142857142856,201.85714285714286 532.4999999999999,212.49999999999997 656,230 C 779.5000000000001,247.50000000000003 955.5714285714287,271.8571428571429 1095,268 C 1234.4285714285713,264.1428571428571 1337.2142857142858,232.07142857142856 1440,200 C 1440,200 1440,400 1440,400 Z");
            }
            75%{
              d: path("M 0,400 C 0,400 0,200 0,200 C 94.71428571428572,234.53571428571428 189.42857142857144,269.07142857142856 299,249 C 408.57142857142856,228.92857142857142 533.0000000000001,154.25 675,138 C 816.9999999999999,121.74999999999999 976.5714285714287,163.92857142857142 1107,184 C 1237.4285714285713,204.07142857142858 1338.7142857142858,202.03571428571428 1440,200 C 1440,200 1440,400 1440,400 Z");
            }
            100%{
              d: path("M 0,400 C 0,400 0,200 0,200 C 121.35714285714286,201.28571428571428 242.71428571428572,202.57142857142858 350,207 C 457.2857142857143,211.42857142857142 550.5,218.99999999999997 680,209 C 809.5,199.00000000000003 975.2857142857142,171.42857142857142 1108,167 C 1240.7142857142858,162.57142857142858 1340.357142857143,181.28571428571428 1440,200 C 1440,200 1440,400 1440,400 Z");
            }
          }</style><defs><linearGradient id="gradient" x1="3%" y1="67%" x2="97%" y2="33%"><stop offset="5%" stop-color="#9900ef"></stop><stop offset="95%" stop-color="#4469d8"></stop></linearGradient></defs><path d="M 0,400 C 0,400 0,200 0,200 C 121.35714285714286,201.28571428571428 242.71428571428572,202.57142857142858 350,207 C 457.2857142857143,211.42857142857142 550.5,218.99999999999997 680,209 C 809.5,199.00000000000003 975.2857142857142,171.42857142857142 1108,167 C 1240.7142857142858,162.57142857142858 1340.357142857143,181.28571428571428 1440,200 C 1440,200 1440,400 1440,400 Z" stroke="none" stroke-width="0" fill="url(#gradient)" fill-opacity="1" class="transition-all duration-300 ease-in-out delay-150 path-0"></path></svg>